<svg width="21" height="11" viewBox="0 0 21 11" fill="none" xmlns="http://www.w3.org/2000/svg">
<path d="M13.05 6.86863L13.11 7.11863L12.9 7.71863L12.69 7.62863L12.71 7.12863L13.05 6.86863ZM9.74 1.80863V2.25863L10.07 2.11863L10.16 1.97863L9.81 1.32863L9.6 1.46863L9.61 1.63863L9.41 1.86863L9.4 2.10863H9.64L9.74 1.80863ZM7.46 0.808633L7.1 0.708632L6.65 1.17863L7.23 2.62863L7.5 2.68863L7.52 2.21863L7.71 2.10863L7.72 1.92863L7.91 1.58863L7.77 1.32863L7.46 0.808633ZM6.89 6.60863L6.22 6.12863L5.23 6.03863L5.09 6.26863L4.89 6.19863L4.79 5.84863L4.49 5.82863L4.61 5.48863L4.37 5.46863L4.12 5.65863L3.95 5.41863L4.1 5.01863L4.77 4.92863L4.89 5.25863L5.06 5.23863V4.91863L5.53 4.29863L6.12 3.98863L6.89 3.66863L6.35 2.50863L6.1 2.64863L5.9 2.12863L5.43 2.14863L5.31 3.07863L5.14 3.09863L4.42 2.36863L4.57 1.98863L5.31 1.84863V0.948633L3.46 1.12863L2.5 0.588633L2.05 0.988633L0.84 0.348633L0.17 0.728633L0.42 1.07863H0.15L0.08 1.34863L0.45 1.39863L0.08 1.67863L0.2 2.07863L0.52 2.14863L0 2.55863L0.81 2.17863L1.25 1.93863L1.98 2.36863L2.55 3.29863V4.12863L2.89 4.74863L3.46 5.59863L4.15 5.83863L4.44 5.96863L4.79 6.39863L5.03 6.35863L4.76 6.77863L4.98 7.62863L5.45 8.02863L4.88 10.2286L5.08 10.6986L5.65 10.8386L5.3 10.4786L5.77 9.62863L6.78 8.79863L6.86 8.41863L7.35 8.34863L7.84 7.37863L6.97 6.97863L6.89 6.60863ZM18.68 6.77863L18.63 7.17863L18.28 7.04863L18.34 6.82863L17.95 6.79863L17.45 7.24863L16.92 7.43863L17.05 8.13863L17 8.27863L17.2 8.38863L17.99 8.19863L18.3 8.36863L18.45 8.28863L18.55 8.56863L18.95 8.67863L19.24 8.50863L19.4 7.66863L18.96 7.24863L18.68 6.77863ZM16.72 6.37863L17.14 6.45863L17.33 5.88863L17.22 5.79863L16.65 6.13863L16.72 6.37863ZM20.41 1.77863L21 1.45863L20.84 1.02863L16.55 0.448633C16.55 0.448633 13.95 0.718633 12.51 0.858633L11.27 0.638633L10.77 0.898633L10.57 1.35863L10.33 1.52863L10.32 1.91863L10.45 1.99863L10.72 1.84863L10.85 2.24863L11.09 2.15863L11.25 1.75863L11.09 1.59863L11.23 1.29863L11.4 1.09863L11.5 1.10863L11.4 1.34863L11.3 1.42863L11.34 1.52863L11.33 1.53863H11.34L11.57 2.12863L11.37 2.05863L11.23 2.40863L10.72 2.39863L10.63 2.14863L10.51 2.29863L10.55 2.45863L10.37 2.46863L10.15 2.76863L9.74 2.89863L9.85 3.10863L10.02 3.36863L9.48 3.33863L9.51 3.83863L9.93 3.89863L10.21 3.48863L10.6 3.29863L10.77 3.48863L11 3.78863L11.17 3.59863L10.84 3.38863L10.83 3.18863L10.99 3.25863L11.25 3.45863L11.24 3.65863L11.44 3.89863L11.53 3.59863L11.78 3.88863L12.22 3.96863L12.15 4.19863L11.98 4.29863L11.34 4.13863L11.18 4.35863L10.76 4.09863L10.69 3.82863L9.65 3.98863L9.12 4.61863L9.02 5.45863L9.57 5.96863L10.56 5.90863L10.85 6.77863L10.74 7.27863L11.21 8.36863L11.74 8.27863L12.27 7.31863L12.56 7.09863L12.48 6.42863L13 5.96863L13.16 5.42863L12.64 5.65863L12.11 4.49863L12.22 4.47863L12.74 5.45863L13.74 4.87863L13.4 4.62863L13.14 4.75863L12.98 4.38863L13.09 4.32863L13.32 4.50863L14.1 4.64863L14.42 5.01863L14.71 5.71863L14.94 5.50863V5.23863L15.57 4.81863L15.8 5.28863L15.99 5.23863L16.03 5.70863L16.22 6.04863L15.8 5.84863L16.11 6.26863L16.45 6.57863L17.26 6.71863L16.82 6.54863L16.5 6.43863L16.39 5.93863L16.13 5.65863L16.14 5.37863L16.44 5.67863L16.73 5.44863L16.46 5.05863L16.59 4.85863L17.19 4.82863L17.46 4.34863L17.27 3.81863L17.51 3.56863L17.69 3.79863L17.76 4.08863L17.97 3.97863L17.89 3.64863L18.07 3.39863L18.36 3.34863L18.7 2.44863L18.41 2.24863L18.81 1.87863L19.34 1.90863L19.78 1.56863L20.12 1.51863L19.57 2.15863L19.58 2.71863L20 2.21863L19.98 1.86863L20.41 1.77863ZM18.81 2.69863H18.7L18.68 3.25863L18.39 3.84863L18.02 4.10863L18 4.34863L18.68 3.95863L18.71 3.55863L18.94 3.35863L18.76 3.21863L18.86 2.88863L18.81 2.69863ZM20.56 8.33863L20.61 8.76863L20.11 9.21863L20.43 9.24863L20.72 8.82863L20.95 8.53863L20.8 8.52863L20.56 8.33863ZM18.02 6.22863L18.46 6.65863L18.71 6.67863L18.82 6.58863L19.17 6.80863L19.03 6.51863L18.36 6.20863L18.02 6.22863Z" fill="#EBE9DE"/>
</svg>
