<svg width="57" height="50" viewBox="0 0 57 50" fill="none" xmlns="http://www.w3.org/2000/svg">
<path d="M25.1111 50C27.8725 50 30.1111 47.7614 30.1111 45C30.1111 42.2386 27.8725 40 25.1111 40C22.3496 40 20.1111 42.2386 20.1111 45C20.1111 47.7614 22.3496 50 25.1111 50Z" fill="white"/>
<path d="M41.8888 50C44.6502 50 46.8888 47.7614 46.8888 45C46.8888 42.2386 44.6502 40 41.8888 40C39.1274 40 36.8888 42.2386 36.8888 45C36.8888 47.7614 39.1274 50 41.8888 50Z" fill="white"/>
<path d="M1.66666 3.33343H8.61697L16.6634 31.5015L16.0323 32.7637C14.3705 36.0837 16.7828 40 20.5049 40H48.5554C49.4766 40 50.2221 39.2546 50.2221 38.3333C50.2221 37.4121 49.4766 36.6667 48.5554 36.6667H20.5049C19.2673 36.6667 18.4584 35.3634 19.0141 34.2546L19.4747 33.3333H48.5554C49.2992 33.3333 49.9535 32.8402 50.1586 32.124L56.8253 8.79075C56.9685 8.28786 56.8676 7.74742 56.5535 7.3292C56.2377 6.91253 55.7446 6.66676 55.2222 6.66676H13.0358L11.4766 1.20933C11.2715 0.493221 10.6173 0 9.87341 0H1.66666C0.745442 0 0 0.745442 0 1.66666C0 2.58788 0.745442 3.33343 1.66666 3.33343Z" fill="white"/>
</svg>
