<svg width="64" height="64" viewBox="0 0 64 64" fill="none" xmlns="http://www.w3.org/2000/svg">
<circle cx="32" cy="32" r="32" fill="white"/>
<path d="M40.96 26.8799H24.32C23.6131 26.8799 23.04 26.3068 23.04 25.5999C23.04 24.8931 23.6131 24.3199 24.32 24.3199H40.96C41.6669 24.3199 42.24 24.8931 42.24 25.5999C42.24 26.3068 41.6669 26.8799 40.96 26.8799Z" fill="#020201"/>
<path d="M40.96 39.68H24.32C23.6131 39.68 23.04 39.1069 23.04 38.4C23.04 37.6931 23.6131 37.12 24.32 37.12H40.96C41.6669 37.12 42.24 37.6931 42.24 38.4C42.24 39.1069 41.6669 39.68 40.96 39.68Z" fill="#020201"/>
<path d="M40.96 33.28H24.32C23.6131 33.28 23.04 32.7069 23.04 32C23.04 31.2931 23.6131 30.72 24.32 30.72H40.96C41.6669 30.72 42.24 31.2931 42.24 32C42.24 32.7069 41.6669 33.28 40.96 33.28Z" fill="#020201"/>
</svg>
