<svg width="52" height="52" viewBox="0 0 52 52" fill="none" xmlns="http://www.w3.org/2000/svg">
<ellipse cx="26" cy="26" rx="22" ry="22" transform="rotate(180 26 26)" fill="#144F53"/>
<path fill-rule="evenodd" clip-rule="evenodd" d="M26 52C40.3594 52 52 40.3594 52 26C52 11.6406 40.3594 1.01765e-06 26 2.27299e-06C11.6406 3.52833e-06 -3.52833e-06 11.6406 -2.27299e-06 26C-1.01765e-06 40.3594 11.6406 52 26 52ZM22.7385 36.3907C22.3607 36.6844 21.8145 36.6577 21.4673 36.3107L21.3872 36.2199C21.0936 35.8422 21.1202 35.2959 21.4673 34.9487L30.4152 26L21.4673 17.0513L21.3872 16.9605C21.0936 16.5828 21.1202 16.0365 21.4673 15.6895C21.8434 15.3133 22.4531 15.3133 22.8291 15.6895L32.4587 25.3191L32.5387 25.4099C32.8324 25.7876 32.8058 26.3338 32.4587 26.681L22.8291 36.3107L22.7385 36.3907Z" fill="white"/>
</svg>
