<svg width="52" height="52" viewBox="0 0 52 52" fill="none" xmlns="http://www.w3.org/2000/svg">
<ellipse cx="26" cy="26" rx="22" ry="22" fill="#144F53"/>
<path fill-rule="evenodd" clip-rule="evenodd" d="M26 0C11.6406 0 0 11.6406 0 26C0 40.3594 11.6406 52 26 52C40.3594 52 52 40.3594 52 26C52 11.6406 40.3594 0 26 0ZM29.2615 15.6093C29.6393 15.3156 30.1855 15.3423 30.5327 15.6893L30.6128 15.7801C30.9064 16.1578 30.8798 16.7041 30.5327 17.0513L21.5848 26L30.5327 34.9487L30.6128 35.0395C30.9064 35.4172 30.8798 35.9635 30.5327 36.3105C30.1566 36.6867 29.5469 36.6867 29.1709 36.3105L19.5413 26.6809L19.4613 26.5901C19.1676 26.2124 19.1942 25.6662 19.5413 25.319L29.1709 15.6893L29.2615 15.6093Z" fill="white"/>
</svg>
