<svg width="32" height="32" viewBox="0 0 32 32" fill="none" xmlns="http://www.w3.org/2000/svg">
<circle cx="16" cy="16" r="16" fill="white"/>
<path d="M13.976 14.3133L13.9226 14.3333C14.2826 15.6 15.0093 17.06 16.4293 18.3866L16.536 18.2933C17.0893 17.8066 17.9093 17.7066 18.3693 18.0733L19.176 18.7866C19.6226 19.1466 19.6093 19.7866 19.0893 20.28C18.8093 20.6066 16.8026 22.66 13.7693 17.88C10.5893 12.84 12.5026 11.46 13.3293 11.1133C13.3426 11.1066 13.356 11.1066 13.3693 11.1C13.3893 11.0933 13.416 11.0866 13.436 11.0733C13.4426 11.0733 13.456 11.0666 13.4626 11.0666C13.5826 11.0266 13.656 11.0133 13.656 11.0133C13.656 11.0133 13.656 11.0133 13.656 11.02C14.2026 10.92 14.6493 11.1866 14.816 11.6333C14.816 11.6333 15.5693 13.9 13.976 14.3133Z" fill="#144F53"/>
</svg>
