<svg width="64" height="64" viewBox="0 0 64 64" fill="none" xmlns="http://www.w3.org/2000/svg">
<circle cx="32" cy="32" r="32" fill="#020201"/>
<circle cx="32" cy="32" r="31" fill="white"/>
<path d="M41.9454 27.8801C41.8985 26.8174 41.7267 26.0868 41.4805 25.4537C41.2265 24.7818 40.8358 24.1802 40.3239 23.68C39.8238 23.1721 39.2182 22.7774 38.554 22.5274C37.9173 22.2813 37.1905 22.1094 36.1279 22.0626C35.0572 22.0118 34.7174 22 32.002 22C29.2866 22 28.9467 22.0118 27.8801 22.0586C26.8174 22.1055 26.0868 22.2775 25.4539 22.5235C24.7818 22.7774 24.1802 23.1681 23.68 23.68C23.1721 24.1802 22.7776 24.7857 22.5274 25.4499C22.2813 26.0868 22.1094 26.8134 22.0626 27.8761C22.0118 28.9467 22 29.2866 22 32.002C22 34.7174 22.0118 35.0572 22.0586 36.1239C22.1055 37.1866 22.2775 37.9172 22.5236 38.5502C22.7776 39.2222 23.1721 39.8238 23.68 40.3239C24.1802 40.8319 24.7857 41.2265 25.4499 41.4765C26.0868 41.7227 26.8134 41.8945 27.8763 41.9414C28.9428 41.9884 29.2828 42 31.9982 42C34.7136 42 35.0534 41.9884 36.1201 41.9414C37.1828 41.8945 37.9133 41.7227 38.5463 41.4765C39.8904 40.9569 40.953 39.8942 41.4727 38.5502C41.7187 37.9133 41.8907 37.1866 41.9376 36.1239C41.9844 35.0572 41.9962 34.7174 41.9962 32.002C41.9962 29.2866 41.9922 28.9467 41.9454 27.8801ZM40.1443 36.0458C40.1013 37.0225 39.9372 37.55 39.8005 37.9016C39.4644 38.7729 38.7729 39.4644 37.9016 39.8005C37.55 39.9372 37.0187 40.1013 36.0458 40.1442C34.9909 40.1912 34.6745 40.2028 32.006 40.2028C29.3374 40.2028 29.0171 40.1912 27.966 40.1442C26.9892 40.1013 26.4618 39.9372 26.1102 39.8005C25.6766 39.6402 25.2819 39.3863 24.9616 39.0542C24.6295 38.7299 24.3755 38.3391 24.2153 37.9056C24.0785 37.5539 23.9144 37.0225 23.8716 36.0497C23.8246 34.9948 23.813 34.6783 23.813 32.0098C23.813 29.3412 23.8246 29.0209 23.8716 27.97C23.9144 26.9932 24.0785 26.4658 24.2153 26.1141C24.3755 25.6804 24.6295 25.2859 24.9655 24.9654C25.2897 24.6333 25.6804 24.3793 26.1141 24.2192C26.4658 24.0825 26.9972 23.9184 27.97 23.8754C29.0249 23.8285 29.3414 23.8168 32.0098 23.8168C34.6823 23.8168 34.9986 23.8285 36.0497 23.8754C37.0265 23.9184 37.5539 24.0825 37.9056 24.2192C38.3391 24.3793 38.7338 24.6333 39.0542 24.9654C39.3863 25.2897 39.6402 25.6804 39.8005 26.1141C39.9372 26.4658 40.1013 26.997 40.1443 27.97C40.1912 29.0249 40.2029 29.3412 40.2029 32.0098C40.2029 34.6783 40.1912 34.9909 40.1443 36.0458Z" fill="#020201"/>
<path d="M32.002 26.8643C29.1656 26.8643 26.8643 29.1654 26.8643 32.002C26.8643 34.8386 29.1656 37.1397 32.002 37.1397C34.8386 37.1397 37.1397 34.8386 37.1397 32.002C37.1397 29.1654 34.8386 26.8643 32.002 26.8643ZM32.002 35.3347C30.1619 35.3347 28.6693 33.8423 28.6693 32.002C28.6693 30.1617 30.1619 28.6693 32.002 28.6693C33.8423 28.6693 35.3347 30.1617 35.3347 32.002C35.3347 33.8423 33.8423 35.3347 32.002 35.3347Z" fill="#020201"/>
<path d="M38.5424 26.6611C38.5424 27.3235 38.0054 27.8605 37.3429 27.8605C36.6805 27.8605 36.1434 27.3235 36.1434 26.6611C36.1434 25.9986 36.6805 25.4617 37.3429 25.4617C38.0054 25.4617 38.5424 25.9986 38.5424 26.6611Z" fill="#020201"/>
</svg>
