<svg width="64" height="64" viewBox="0 0 64 64" fill="none" xmlns="http://www.w3.org/2000/svg">
<circle cx="32" cy="32" r="32" fill="#020201"/>
<circle cx="32" cy="32" r="31" fill="white"/>
<path d="M32.3966 22C26.9151 22 24 25.5127 24 29.3428C24 31.1192 24.9925 33.3343 26.5814 34.0368C26.8226 34.1455 26.9539 34.0993 27.0076 33.8755C27.0551 33.7055 27.2639 32.8867 27.3652 32.5005C27.3964 32.3767 27.3802 32.2692 27.2801 32.153C26.7526 31.5429 26.3339 30.4316 26.3339 29.3891C26.3339 26.7177 28.4577 24.1238 32.0716 24.1238C35.1968 24.1238 37.3831 26.1539 37.3831 29.0578C37.3831 32.3392 35.6468 34.6093 33.3904 34.6093C32.1416 34.6093 31.2116 33.6293 31.5066 32.4167C31.8629 30.9729 32.5616 29.4203 32.5616 28.379C32.5616 27.4452 32.0341 26.6727 30.9566 26.6727C29.6853 26.6727 28.654 27.9315 28.654 29.6216C28.654 30.6954 29.034 31.4204 29.034 31.4204C29.034 31.4204 27.7764 36.5007 27.5427 37.4495C27.1476 39.0558 27.5964 41.6571 27.6352 41.8809C27.6589 42.0047 27.7977 42.0434 27.8752 41.9422C27.9989 41.7796 29.519 39.6108 29.9453 38.0432C30.1003 37.472 30.7366 35.1556 30.7366 35.1556C31.1553 35.9119 32.3641 36.5457 33.6517 36.5457C37.4819 36.5457 40.2495 33.1793 40.2495 29.0016C40.2357 24.9964 36.8081 22 32.3966 22Z" fill="#020201"/>
</svg>
