<svg width="64" height="64" viewBox="0 0 64 64" fill="none" xmlns="http://www.w3.org/2000/svg">
<circle cx="32" cy="32" r="32" fill="#020201"/>
<circle cx="32" cy="32" r="31" fill="white"/>
<path d="M32 42C37.5228 42 42 37.5228 42 32C42 26.4772 37.5228 22 32 22C26.4772 22 22 26.4772 22 32C22 37.5228 26.4772 42 32 42Z" fill="#020201"/>
<path d="M36.0599 36.7133C35.8908 36.7133 35.7858 36.6617 35.6283 36.5692C33.1124 35.0525 30.1849 34.9892 27.2933 35.5817C27.1358 35.6225 26.9299 35.6867 26.8133 35.6867C26.4216 35.6867 26.1758 35.3758 26.1758 35.0492C26.1758 34.6333 26.4216 34.4358 26.7249 34.3717C30.0274 33.6425 33.4024 33.7067 36.2808 35.4283C36.5266 35.5858 36.6724 35.7267 36.6724 36.0933C36.6724 36.4583 36.3858 36.7133 36.0599 36.7133Z" fill="#EBE9DE"/>
<path d="M37.1457 34.0692C36.9357 34.0692 36.7941 33.9767 36.6482 33.9C34.1274 32.4083 30.3707 31.8067 27.0274 32.7142C26.8341 32.7667 26.7291 32.8192 26.5474 32.8192C26.1157 32.8192 25.7657 32.4683 25.7657 32.0375C25.7657 31.6067 25.9757 31.32 26.3907 31.2033C27.5116 30.8883 28.6566 30.6542 30.3341 30.6542C32.9507 30.6542 35.4791 31.3033 37.4716 32.4892C37.7982 32.6825 37.9274 32.9333 37.9274 33.2833C37.9232 33.7175 37.5849 34.0692 37.1457 34.0692Z" fill="#EBE9DE"/>
<path d="M25.79 27.8317C27.2092 27.4158 28.7984 27.2192 30.5284 27.2192C33.4717 27.2192 36.5567 27.8317 38.8109 29.1467C39.1259 29.3283 39.3309 29.5783 39.3309 30.0575C39.3309 30.6058 38.8867 30.9967 38.3959 30.9967L38.395 30.9958C38.185 30.9958 38.0559 30.9433 37.8742 30.8383C35.0042 29.125 29.87 28.7142 26.5484 29.6417C26.4025 29.6817 26.2209 29.7458 26.0275 29.7458C25.495 29.7458 25.0884 29.33 25.0884 28.7942C25.0884 28.2467 25.4275 27.9367 25.79 27.8317Z" fill="#EBE9DE"/>
</svg>
