<svg width="64" height="64" viewBox="0 0 64 64" fill="none" xmlns="http://www.w3.org/2000/svg">
<circle cx="32" cy="32" r="32" fill="#020201"/>
<circle cx="32" cy="32" r="31" fill="white"/>
<path d="M44.6154 24.3677C43.7 24.7692 42.7246 25.0354 41.7077 25.1646C42.7538 24.54 43.5523 23.5585 43.9277 22.3754C42.9523 22.9569 41.8754 23.3677 40.7277 23.5969C39.8015 22.6108 38.4815 22 37.0415 22C34.2477 22 31.9985 24.2677 31.9985 27.0477C31.9985 27.4477 32.0323 27.8323 32.1154 28.1985C27.92 27.9938 24.2077 25.9831 21.7138 22.92C21.2785 23.6754 21.0231 24.54 21.0231 25.4708C21.0231 27.2185 21.9231 28.7677 23.2646 29.6646C22.4538 29.6492 21.6585 29.4138 20.9846 29.0431C20.9846 29.0585 20.9846 29.0785 20.9846 29.0985C20.9846 31.5508 22.7338 33.5877 25.0277 34.0569C24.6169 34.1692 24.1692 34.2231 23.7046 34.2231C23.3815 34.2231 23.0554 34.2046 22.7492 34.1369C23.4031 36.1354 25.2585 37.6046 27.4646 37.6523C25.7477 38.9954 23.5677 39.8046 21.2077 39.8046C20.7938 39.8046 20.3969 39.7862 20 39.7354C22.2354 41.1769 24.8846 42 27.7415 42C37.0277 42 42.1046 34.3077 42.1046 27.64C42.1046 27.4169 42.0969 27.2015 42.0862 26.9877C43.0877 26.2769 43.9292 25.3892 44.6154 24.3677Z" fill="#020201"/>
</svg>
