<svg width="64" height="64" viewBox="0 0 64 64" fill="none" xmlns="http://www.w3.org/2000/svg">
<circle cx="32" cy="32" r="32" fill="#020201"/>
<circle cx="32" cy="32" r="31" fill="white"/>
<path d="M41.5879 27.1912C41.3574 26.3344 40.6819 25.659 39.8252 25.4283C38.2602 25 31.9998 25 31.9998 25C31.9998 25 25.7396 25 24.1745 25.412C23.3344 25.6425 22.6424 26.3345 22.4118 27.1912C22 28.7561 22 32.0016 22 32.0016C22 32.0016 22 35.2635 22.4118 36.8121C22.6425 37.6687 23.3179 38.3442 24.1747 38.5749C25.7561 39.0032 32 39.0032 32 39.0032C32 39.0032 38.2602 39.0032 39.8252 38.5913C40.682 38.3607 41.3574 37.6852 41.5881 36.8286C41.9999 35.2635 41.9999 32.0181 41.9999 32.0181C41.9999 32.0181 42.0164 28.7561 41.5879 27.1912Z" fill="#020201"/>
<path d="M30.0062 34.9999L35.212 32.0016L30.0062 29.0032V34.9999Z" fill="#EBE9DE"/>
</svg>
