<svg width="51" height="51" viewBox="0 0 51 51" fill="none" xmlns="http://www.w3.org/2000/svg">
<path d="M48.2519 0.472656C42.218 7.44102 40.7229 4.45076 37.6258 7.54781C35.6768 9.51017 35.6768 12.674 37.6258 14.623C39.5882 16.572 42.7653 16.572 44.7143 14.623C48.8927 10.4446 48.2519 0.472656 48.2519 0.472656Z" fill="white"/>
<path d="M48.2259 41.6816L41.1641 48.7434L50.0013 50.5189L48.2259 41.6816Z" fill="white"/>
<path d="M8.53691 2.00765C6.5879 0.0586473 3.41076 0.0586473 1.46175 2.00765C-0.487251 3.95666 -0.487251 7.12045 1.46175 9.08281L3.22387 10.8449L10.299 3.76977L8.53691 2.00765Z" fill="white"/>
<path d="M16.0915 30.7627L2.35504 46.0877C1.43393 47.1557 1.48733 48.7443 2.48853 49.7455C3.48973 50.7467 5.07831 50.8001 6.14626 49.879L21.4847 36.1558L16.0915 30.7627Z" fill="white"/>
<path d="M32.9665 26.4239L37.6388 21.6982L30.5636 14.6231L25.9848 19.4555L13.8369 7.30762L6.76172 14.3694L37.6254 45.2064L44.6872 38.1446L32.9665 26.4239Z" fill="white"/>
</svg>
