<svg width="50" height="49" viewBox="0 0 50 49" fill="none" xmlns="http://www.w3.org/2000/svg">
<path d="M41.8291 3.94433L41.0238 2.81496C40.1015 1.52128 38.305 1.22028 37.0114 2.14264L20.2799 14.0719C18.9862 14.9942 18.6852 16.7907 19.6076 18.0843L20.4128 19.2137C20.4952 19.3292 20.6556 19.3561 20.7711 19.2737L41.769 4.30259C41.8845 4.22025 41.9114 4.05982 41.8291 3.94433Z" fill="white"/>
<path d="M21.6647 20.9705L26.7645 28.1232C27.6868 29.4169 29.4833 29.7179 30.777 28.7955L47.5084 16.8663C48.8021 15.9439 49.1031 14.1475 48.1807 12.8538L43.081 5.7011C42.9987 5.58562 42.8382 5.55874 42.7227 5.64108L21.7248 20.6122C21.6093 20.6946 21.5824 20.855 21.6647 20.9705ZM30.9256 22.6327C31.1891 23.0023 31.1031 23.5156 30.7335 23.7791L30.0643 24.2563C29.6947 24.5198 29.1814 24.4338 28.9178 24.0642L28.4407 23.3949C28.1772 23.0253 28.2632 22.512 28.6328 22.2485L29.302 21.7714C29.6716 21.5078 30.1849 21.5938 30.4485 21.9634L30.9256 22.6327Z" fill="white"/>
<path d="M48.8552 26.5808C47.8729 25.8814 46.5708 25.9054 45.615 26.6407L31.7139 37.3358C31.6635 37.3747 31.6078 37.4011 31.5506 37.4203C30.9074 37.8603 30.1299 38.1201 29.2985 38.1201H17.1086C16.8009 38.1201 16.5513 37.8705 16.5513 37.5628C16.5513 37.2551 16.8009 37.0055 17.1086 37.0055H29.2986C30.8318 37.0055 32.1124 35.791 32.1533 34.298C32.1964 32.7252 30.9381 31.433 29.3681 31.433H22.7699C21.4755 31.433 20.2234 30.9858 19.1486 30.1398C18.4043 29.5539 17.2273 29.204 16.0001 29.204C14.1881 29.204 12.5096 29.9671 12.1055 30.9576V44.8391L30.2457 45.91L48.9766 30.9253C50.3889 29.7955 50.3294 27.6307 48.8552 26.5808Z" fill="white"/>
<path d="M0 48.1509H10.9917C10.9917 45.8988 10.9917 30.5614 10.9917 28.0898H5.27929L0 48.1509Z" fill="white"/>
<path d="M33.2302 34.7643L44.1054 26.3971C43.3258 24.941 41.4013 24.4821 40.0436 25.5265L32.2129 31.5512C33.0491 32.4415 33.3948 33.6256 33.2302 34.7643Z" fill="white"/>
</svg>
