<svg width="50" height="47" viewBox="0 0 50 47" fill="none" xmlns="http://www.w3.org/2000/svg">
<path d="M29.5531 37.3545L30.8612 37.3545C32.3596 37.3545 33.5742 36.1398 33.5742 34.6415L33.5742 15.2628C33.5742 13.7645 32.3596 12.5498 30.8612 12.5498L29.5531 12.5498C29.4194 12.5498 29.3109 12.6583 29.3109 12.792L29.3109 37.1123C29.3109 37.246 29.4194 37.3545 29.5531 37.3545Z" fill="white"/>
<path d="M27.5175 12.5499L19.2332 12.5499C17.7348 12.5499 16.5201 13.7646 16.5201 15.2629L16.5201 34.6416C16.5201 36.14 17.7348 37.3546 19.2332 37.3546L27.5175 37.3546C27.6513 37.3546 27.7598 37.2461 27.7598 37.1124L27.7598 12.7922C27.7598 12.6584 27.6513 12.5499 27.5175 12.5499ZM21.171 18.7511C20.7429 18.7511 20.3959 18.404 20.3959 17.976L20.3959 17.2008C20.3959 16.7727 20.7429 16.4257 21.171 16.4257L21.9462 16.4257C22.3742 16.4257 22.7213 16.7727 22.7213 17.2008L22.7213 17.976C22.7213 18.404 22.3742 18.7511 21.9462 18.7511L21.171 18.7511Z" fill="white"/>
<path d="M46.7437 12.044L25.9979 0.727344C25.375 0.38776 24.625 0.38776 24.0021 0.727344L3.25833 12.044C1.24792 13.1378 0 15.2398 0 17.5315V40.0565C0 43.5023 2.80417 46.3065 6.25 46.3065H43.75C47.1958 46.3065 50 43.5023 50 40.0565V17.5315C50 15.2398 48.7521 13.1378 46.7437 12.044ZM5.25208 15.7023L25 4.92943L44.7479 15.7003C45.4167 16.0669 45.8333 16.7669 45.8333 17.5315V20.1336L26.2208 30.3773C25.4688 30.7669 24.5312 30.7669 23.7854 30.3815L4.16667 20.1336V17.5315C4.16667 16.7669 4.58333 16.0669 5.25208 15.7023Z" fill="white"/>
</svg>
