<svg width="50" height="47" viewBox="0 0 50 47" fill="none" xmlns="http://www.w3.org/2000/svg">
<path d="M48.4374 29.6393C47.5749 29.6393 46.8749 28.9393 46.8749 28.0768C46.8749 22.0456 41.9687 17.1393 35.9374 17.1393H20.8333V23.9102C20.8333 25.2852 19.1791 25.981 18.1916 25.0393L6.73333 14.1018C6.425 13.8081 6.25 13.3998 6.25 12.9727C6.25 12.5456 6.425 12.1373 6.73333 11.8435L18.1916 0.906047C19.1833 -0.0397836 20.8333 0.664381 20.8333 2.03521V8.80603H33.8541C42.7562 8.80603 49.9999 16.0498 49.9999 24.9518V28.0768C49.9999 28.9393 49.2999 29.6393 48.4374 29.6393Z" fill="white"/>
<path d="M29.1666 44.7437V37.9729H16.1458C7.24373 37.9729 0 30.7292 0 21.8271V18.7021C0 17.8396 0.699998 17.1396 1.5625 17.1396C2.42499 17.1396 3.12499 17.8396 3.12499 18.7021C3.12499 24.7334 8.03123 29.6396 14.0625 29.6396H29.1666V22.8688C29.1666 21.5001 30.8145 20.7896 31.8083 21.7396L43.2666 32.6771C43.5749 32.9709 43.7499 33.3792 43.7499 33.8063C43.7499 34.2334 43.5749 34.6417 43.2666 34.9354L31.8083 45.8729C30.8145 46.8187 29.1666 46.1146 29.1666 44.7437Z" fill="white"/>
</svg>
