<svg width="192" height="79" viewBox="0 0 192 79" fill="none" xmlns="http://www.w3.org/2000/svg">
<path d="M10.0869 58.1006V63.1387H9.68945C9.56055 62.1719 9.3278 61.402 8.99121 60.8291C8.8265 60.5426 8.61882 60.2848 8.36816 60.0557C8.12467 59.8265 7.85612 59.6331 7.5625 59.4756C7.27604 59.3109 6.9681 59.1855 6.63867 59.0996C6.31641 59.0065 5.99056 58.96 5.66113 58.96C5.2959 58.96 4.95573 59.0244 4.64062 59.1533C4.32552 59.2751 4.0498 59.4398 3.81348 59.6475C3.58431 59.8551 3.40527 60.0951 3.27637 60.3672C3.14746 60.6322 3.08301 60.9079 3.08301 61.1943C3.08301 61.5954 3.17611 61.9463 3.3623 62.2471C3.5485 62.5407 3.80273 62.8128 4.125 63.0635C4.45443 63.3141 4.83757 63.5576 5.27441 63.7939C5.71842 64.0303 6.19824 64.2845 6.71387 64.5566C7.29395 64.8646 7.84538 65.1654 8.36816 65.459C8.89095 65.7526 9.34928 66.0785 9.74316 66.4365C10.1442 66.7874 10.4629 67.1921 10.6992 67.6504C10.9355 68.1016 11.0537 68.6458 11.0537 69.2832C11.0537 69.8275 10.9391 70.3467 10.71 70.8408C10.488 71.3278 10.1729 71.7575 9.76465 72.1299C9.36361 72.4951 8.88021 72.7852 8.31445 73C7.75586 73.222 7.13997 73.333 6.4668 73.333C6.21615 73.333 6.0013 73.3294 5.82227 73.3223C5.64323 73.3151 5.47135 73.2972 5.30664 73.2686C5.14193 73.2471 4.97005 73.2077 4.79102 73.1504C4.61914 73.1003 4.41146 73.0286 4.16797 72.9355C3.99609 72.8711 3.82064 72.8138 3.6416 72.7637C3.46257 72.7064 3.29785 72.6598 3.14746 72.624C2.99707 72.5882 2.86816 72.5596 2.76074 72.5381C2.66048 72.5166 2.59603 72.5059 2.56738 72.5059C2.38835 72.5059 2.24512 72.5596 2.1377 72.667C2.03743 72.7744 1.96224 72.9964 1.91211 73.333H1.51465V68.3379H1.91211C2.00521 68.8607 2.11263 69.319 2.23438 69.7129C2.36328 70.0996 2.50651 70.4255 2.66406 70.6904C2.82161 70.9482 3.02572 71.1882 3.27637 71.4102C3.52702 71.6322 3.80632 71.8255 4.11426 71.9902C4.42936 72.1478 4.76595 72.2731 5.12402 72.3662C5.48926 72.4521 5.86165 72.4951 6.24121 72.4951C6.69238 72.4951 7.09701 72.4307 7.45508 72.3018C7.81315 72.1729 8.11751 72.001 8.36816 71.7861C8.61882 71.5641 8.80859 71.3099 8.9375 71.0234C9.07357 70.7298 9.1416 70.4255 9.1416 70.1104C9.1416 69.6449 9.04492 69.2546 8.85156 68.9395C8.6582 68.6172 8.39681 68.3307 8.06738 68.0801C7.74512 67.8294 7.36556 67.5895 6.92871 67.3604C6.49902 67.1312 6.04427 66.8734 5.56445 66.5869C5.02018 66.2646 4.49382 65.9603 3.98535 65.6738C3.48405 65.3802 3.04004 65.0615 2.65332 64.7178C2.2666 64.3669 1.95508 63.9694 1.71875 63.5254C1.48958 63.0814 1.375 62.5514 1.375 61.9355C1.375 61.4199 1.48242 60.9294 1.69727 60.4639C1.91211 59.9984 2.20931 59.5902 2.58887 59.2393C2.96842 58.8883 3.41602 58.6126 3.93164 58.4121C4.45443 58.2044 5.02376 58.1006 5.63965 58.1006C6.39876 58.1006 7.21875 58.2904 8.09961 58.6699C8.48633 58.849 8.76921 58.9385 8.94824 58.9385C9.13444 58.9385 9.28483 58.8848 9.39941 58.7773C9.52116 58.6628 9.61784 58.4372 9.68945 58.1006H10.0869ZM19.0352 72.6025V73H12.7939V72.6025H13.3096C13.9183 72.6025 14.3551 72.4271 14.6201 72.0762C14.792 71.8542 14.8779 71.3027 14.8779 70.4219V61.0117C14.8779 60.668 14.8708 60.3887 14.8564 60.1738C14.8421 59.959 14.8135 59.7835 14.7705 59.6475C14.7347 59.5042 14.6774 59.3932 14.5986 59.3145C14.527 59.2357 14.4268 59.1605 14.2979 59.0889C13.9827 58.917 13.6533 58.8311 13.3096 58.8311H12.7939V58.4336H19.0352V58.8311H18.5088C17.9072 58.8311 17.474 59.0065 17.209 59.3574C17.0299 59.5794 16.9404 60.1309 16.9404 61.0117V70.4219C16.9404 70.7656 16.9476 71.0449 16.9619 71.2598C16.9762 71.4746 17.0013 71.6501 17.0371 71.7861C17.0801 71.9222 17.141 72.0332 17.2197 72.1191C17.2985 72.1979 17.4023 72.2731 17.5312 72.3447C17.8392 72.5166 18.165 72.6025 18.5088 72.6025H19.0352ZM33.0752 58.1006L33.4512 62.6982H33.0752C32.7028 61.5596 32.2122 60.6966 31.6035 60.1094C30.7298 59.2715 29.6162 58.8525 28.2627 58.8525C26.4079 58.8525 24.9971 59.5866 24.0303 61.0547C23.221 62.2936 22.8164 63.7689 22.8164 65.4805C22.8164 66.8698 23.085 68.1374 23.6221 69.2832C23.8584 69.7917 24.1413 70.25 24.4707 70.6582C24.8001 71.0664 25.1689 71.4137 25.5771 71.7002C25.9854 71.9867 26.4258 72.2087 26.8984 72.3662C27.3783 72.5238 27.8831 72.6025 28.4131 72.6025C28.9502 72.6025 29.4658 72.5345 29.96 72.3984C30.4613 72.2624 30.9482 72.0618 31.4209 71.7969V67.5859C31.4209 67.2135 31.4066 66.9163 31.3779 66.6943C31.3493 66.4652 31.3063 66.2826 31.249 66.1465C31.1989 66.0104 31.1273 65.9066 31.0342 65.835C30.9482 65.7633 30.848 65.6989 30.7334 65.6416C30.5042 65.5199 30.096 65.459 29.5088 65.459V65.0508H35.1484V65.459H34.8799C34.6364 65.459 34.4287 65.4876 34.2568 65.5449C34.085 65.5951 33.9417 65.6953 33.8271 65.8457C33.7197 65.9961 33.641 66.2109 33.5908 66.4902C33.5407 66.7695 33.5156 67.1348 33.5156 67.5859V72.0439C33.0859 72.2731 32.6706 72.4701 32.2695 72.6348C31.8685 72.7923 31.4603 72.9212 31.0449 73.0215C30.6367 73.1289 30.2142 73.2077 29.7773 73.2578C29.3477 73.3079 28.8893 73.333 28.4023 73.333C25.5879 73.333 23.4502 72.4307 21.9893 70.626C20.8936 69.2725 20.3457 67.7113 20.3457 65.9424C20.3457 65.4482 20.3958 64.9541 20.4961 64.46C20.5964 63.9587 20.7396 63.4717 20.9258 62.999C21.112 62.5264 21.3411 62.0752 21.6133 61.6455C21.8854 61.2087 22.1898 60.8076 22.5264 60.4424C23.2425 59.6403 24.0589 59.0495 24.9756 58.6699C25.8994 58.2904 26.9271 58.1006 28.0586 58.1006C28.3952 58.1006 28.6888 58.1149 28.9395 58.1436C29.1901 58.165 29.4336 58.2044 29.6699 58.2617C29.9062 58.3118 30.1533 58.3835 30.4111 58.4766C30.6761 58.5625 30.9876 58.6699 31.3457 58.7988C31.7396 58.9492 32.0081 59.0244 32.1514 59.0244C32.2874 59.0244 32.402 58.9635 32.4951 58.8418C32.5954 58.7129 32.6562 58.4658 32.6777 58.1006H33.0752ZM35.1807 58.4336H39.1338L48.0391 69.3584V60.958C48.0391 60.0628 47.9388 59.5042 47.7383 59.2822C47.4661 58.9814 47.0472 58.8311 46.4814 58.8311H45.9766V58.4336H51.0469V58.8311H50.5312C49.9154 58.8311 49.4785 59.0173 49.2207 59.3896C49.0632 59.6117 48.9844 60.1344 48.9844 60.958V73.2363H48.5977L38.9941 61.5059V70.4756C38.9941 71.3708 39.0908 71.9294 39.2842 72.1514C39.5492 72.4521 39.9681 72.6025 40.541 72.6025H41.0566V73H35.9863V72.6025H36.4912C37.1143 72.6025 37.5547 72.4163 37.8125 72.0439C37.9701 71.8219 38.0488 71.2992 38.0488 70.4756V60.3457C37.834 60.0951 37.6549 59.8945 37.5117 59.7441C37.3685 59.5938 37.2324 59.472 37.1035 59.3789C36.9746 59.2786 36.835 59.1999 36.6846 59.1426C36.5342 59.0781 36.348 59.0065 36.126 58.9277C35.9183 58.8633 35.6032 58.8311 35.1807 58.8311V58.4336ZM61.4346 68.123H55.7949L54.8066 70.4219C54.5632 70.9805 54.4414 71.403 54.4414 71.6895C54.4414 71.804 54.4593 71.9115 54.4951 72.0117C54.5381 72.1048 54.6204 72.1943 54.7422 72.2803C54.8639 72.359 55.0358 72.4271 55.2578 72.4844C55.4798 72.5345 55.7699 72.5739 56.1279 72.6025V73H51.541V72.6025C52.1426 72.4951 52.5365 72.3555 52.7227 72.1836C52.9089 72.0117 53.0986 71.7539 53.292 71.4102C53.4925 71.0592 53.7074 70.6188 53.9365 70.0889L59.0605 58.1006H59.4365L64.5068 70.2178C64.7145 70.7191 64.9043 71.1237 65.0762 71.4316C65.2552 71.7324 65.4378 71.9688 65.624 72.1406C65.8102 72.3053 66.0107 72.4199 66.2256 72.4844C66.4476 72.5488 66.709 72.5882 67.0098 72.6025V73H61.2627V72.6025C61.5492 72.5882 61.7891 72.556 61.9824 72.5059C62.1758 72.4557 62.3262 72.3913 62.4336 72.3125C62.5482 72.2337 62.627 72.1442 62.6699 72.0439C62.7201 71.9437 62.7451 71.8327 62.7451 71.7109C62.7523 71.5534 62.7165 71.3529 62.6377 71.1094C62.5661 70.8587 62.4587 70.5615 62.3154 70.2178L61.4346 68.123ZM61.1338 67.3281L58.6631 61.4414L56.1279 67.3281H61.1338ZM79.9971 58.4336V61.8496H79.75C79.6927 61.3913 79.596 61.0046 79.46 60.6895C79.3311 60.3672 79.1592 60.1094 78.9443 59.916C78.7295 59.7155 78.4681 59.5723 78.1602 59.4863C77.8522 59.3932 77.4941 59.3467 77.0859 59.3467H75.0342V70.4756C75.0342 71.3708 75.1309 71.9294 75.3242 72.1514C75.5892 72.4521 76.0081 72.6025 76.5811 72.6025H77.0859V73H70.9092V72.6025H71.4248C72.0407 72.6025 72.4775 72.4163 72.7354 72.0439C72.8929 71.8219 72.9717 71.2992 72.9717 70.4756V59.3467H71.2207C70.7767 59.3467 70.39 59.3789 70.0605 59.4434C69.7311 59.5078 69.4518 59.6296 69.2227 59.8086C68.9935 59.9876 68.8073 60.2419 68.6641 60.5713C68.5208 60.9007 68.4134 61.3268 68.3418 61.8496H67.9336V58.4336H79.9971ZM91.2119 58.8311V58.4336H96.3682V58.8311H95.8203C95.2474 58.8311 94.807 59.071 94.499 59.5508C94.3486 59.7799 94.2734 60.2956 94.2734 61.0977V67.0059C94.2734 68.4596 94.1266 69.5947 93.833 70.4111C93.6468 70.9339 93.3818 71.3815 93.0381 71.7539C92.6943 72.1191 92.2969 72.4199 91.8457 72.6562C91.3945 72.8926 90.8968 73.0645 90.3525 73.1719C89.8154 73.2865 89.2533 73.3438 88.666 73.3438C87.0833 73.3438 85.8766 73.068 85.0459 72.5166C84.5231 72.1729 84.1185 71.8112 83.832 71.4316C83.5527 71.0449 83.3451 70.6224 83.209 70.1641C83.0801 69.6986 83.0049 69.1865 82.9834 68.6279C82.9619 68.0622 82.9512 67.4212 82.9512 66.7051V61.0117C82.9512 60.5605 82.9189 60.1917 82.8545 59.9053C82.7972 59.6188 82.7041 59.3968 82.5752 59.2393C82.4463 59.0817 82.2816 58.9743 82.0811 58.917C81.8877 58.8597 81.6549 58.8311 81.3828 58.8311H80.835V58.4336H87.1299V58.8311H86.5713C86.2275 58.8311 85.9518 58.8812 85.7441 58.9814C85.5365 59.0745 85.3789 59.2142 85.2715 59.4004C85.1641 59.5866 85.0924 59.8158 85.0566 60.0879C85.028 60.36 85.0137 60.668 85.0137 61.0117V67.3604C85.0137 67.7184 85.0244 68.0729 85.0459 68.4238C85.0674 68.7747 85.1104 69.1149 85.1748 69.4443C85.2393 69.7666 85.3252 70.0745 85.4326 70.3682C85.5472 70.6546 85.694 70.9196 85.873 71.1631C86.1523 71.5498 86.5247 71.8577 86.9902 72.0869C87.4629 72.3089 88.0645 72.4199 88.7949 72.4199C89.2676 72.4199 89.7188 72.3662 90.1484 72.2588C90.5853 72.1442 90.9827 71.9902 91.3408 71.7969C91.7061 71.5964 92.0212 71.3636 92.2861 71.0986C92.5511 70.8265 92.7516 70.5293 92.8877 70.207C93.167 69.5553 93.3066 68.4561 93.3066 66.9092V61.0117C93.3066 60.0951 93.2064 59.5257 93.0059 59.3037C92.7266 58.9886 92.3112 58.8311 91.7598 58.8311H91.2119ZM111.482 73H107.594L102.663 66.1895C102.477 66.1966 102.309 66.2038 102.158 66.2109C102.015 66.2109 101.886 66.2109 101.771 66.2109C101.678 66.2109 101.578 66.2109 101.471 66.2109C101.363 66.2038 101.252 66.1966 101.138 66.1895V70.4219C101.138 71.3385 101.238 71.9079 101.438 72.1299C101.711 72.445 102.119 72.6025 102.663 72.6025H103.232V73H96.9912V72.6025H97.5391C98.1478 72.6025 98.5882 72.402 98.8604 72.001C99.0107 71.779 99.0859 71.2526 99.0859 70.4219V61.0117C99.0859 60.0951 98.9857 59.5257 98.7852 59.3037C98.5059 58.9886 98.0905 58.8311 97.5391 58.8311H96.9912V58.4336H102.298C103.83 58.4336 104.969 58.5482 105.714 58.7773C106.079 58.8848 106.419 59.0459 106.734 59.2607C107.057 59.4756 107.336 59.7298 107.572 60.0234C107.816 60.3171 108.006 60.6465 108.142 61.0117C108.285 61.377 108.356 61.7673 108.356 62.1826C108.356 62.6338 108.285 63.0563 108.142 63.4502C107.998 63.8369 107.776 64.1914 107.476 64.5137C107.182 64.8359 106.81 65.1152 106.358 65.3516C105.907 65.5879 105.377 65.7741 104.769 65.9102L107.776 70.0889C108.471 71.0557 109.062 71.693 109.549 72.001C110.05 72.3161 110.695 72.5166 111.482 72.6025V73ZM101.138 65.5127C101.274 65.5127 101.392 65.5163 101.492 65.5234C101.592 65.5234 101.675 65.5234 101.739 65.5234C102.434 65.5234 103.043 65.4447 103.565 65.2871C104.095 65.1224 104.536 64.8968 104.887 64.6104C105.238 64.3239 105.499 63.9873 105.671 63.6006C105.85 63.2067 105.939 62.7806 105.939 62.3223C105.939 61.8711 105.864 61.4593 105.714 61.0869C105.563 60.7074 105.349 60.3815 105.069 60.1094C104.797 59.8372 104.468 59.626 104.081 59.4756C103.701 59.3252 103.283 59.25 102.824 59.25C102.617 59.25 102.373 59.2679 102.094 59.3037C101.814 59.3324 101.496 59.3825 101.138 59.4541V65.5127ZM115.887 59.2285V64.9863H119.088C119.553 64.9863 119.929 64.9469 120.216 64.8682C120.509 64.7822 120.739 64.6533 120.903 64.4814C121.068 64.3024 121.183 64.0804 121.247 63.8154C121.312 63.5505 121.354 63.2354 121.376 62.8701H121.773V67.9404H121.376C121.326 67.5824 121.276 67.2923 121.226 67.0703C121.175 66.8411 121.125 66.6764 121.075 66.5762C121.011 66.4473 120.928 66.3363 120.828 66.2432C120.728 66.1429 120.599 66.057 120.441 65.9854C120.284 65.9137 120.094 65.86 119.872 65.8242C119.65 65.7884 119.389 65.7705 119.088 65.7705H115.887V70.5723C115.887 71.2096 115.915 71.6035 115.973 71.7539C116.001 71.8184 116.037 71.8792 116.08 71.9365C116.123 71.9938 116.184 72.0439 116.263 72.0869C116.349 72.1227 116.456 72.1514 116.585 72.1729C116.721 72.1943 116.889 72.2051 117.09 72.2051H119.561C119.983 72.2051 120.334 72.1943 120.613 72.1729C120.9 72.1442 121.147 72.1012 121.354 72.0439C121.569 71.9795 121.756 71.8936 121.913 71.7861C122.078 71.6715 122.25 71.5283 122.429 71.3564C122.651 71.1416 122.876 70.8659 123.105 70.5293C123.335 70.1927 123.564 69.7988 123.793 69.3477H124.223L122.966 73H111.74V72.6025H112.256C112.392 72.6025 112.535 72.5882 112.686 72.5596C112.836 72.5309 112.976 72.4844 113.104 72.4199C113.241 72.3555 113.362 72.2767 113.47 72.1836C113.577 72.0833 113.652 71.9688 113.695 71.8398C113.781 71.6178 113.824 71.1488 113.824 70.4326V60.9688C113.824 60.0521 113.731 59.4827 113.545 59.2607C113.287 58.9743 112.857 58.8311 112.256 58.8311H111.74V58.4336H122.966V61.624H122.708C122.629 61.2373 122.55 60.9186 122.472 60.668C122.393 60.4173 122.303 60.2096 122.203 60.0449C122.103 59.8802 121.988 59.7513 121.859 59.6582C121.73 59.5579 121.576 59.4684 121.397 59.3896C121.104 59.2822 120.599 59.2285 119.883 59.2285H115.887ZM143.483 58.1006L143.816 63.0527H143.483C143.261 62.3151 142.989 61.6813 142.667 61.1514C142.352 60.6214 141.99 60.1882 141.582 59.8516C141.174 59.515 140.723 59.2679 140.229 59.1104C139.734 58.9528 139.197 58.874 138.617 58.874C137.643 58.874 136.78 59.1139 136.028 59.5938C135.276 60.0664 134.678 60.7969 134.234 61.7852C133.991 62.3294 133.805 62.9489 133.676 63.6436C133.547 64.3311 133.482 65.1045 133.482 65.9639C133.482 67.2744 133.694 68.4167 134.116 69.3906C134.331 69.8848 134.6 70.318 134.922 70.6904C135.251 71.0628 135.624 71.3743 136.039 71.625C136.454 71.8757 136.906 72.0654 137.393 72.1943C137.887 72.3232 138.399 72.3877 138.929 72.3877C139.53 72.3877 140.049 72.3268 140.486 72.2051C140.923 72.0833 141.321 71.8971 141.679 71.6465C142.037 71.3958 142.381 71.0807 142.71 70.7012C143.047 70.3216 143.415 69.8776 143.816 69.3691L144.149 69.584C143.784 70.2285 143.39 70.7871 142.968 71.2598C142.545 71.7324 142.087 72.1227 141.593 72.4307C141.099 72.7386 140.562 72.9642 139.981 73.1074C139.409 73.2578 138.789 73.333 138.123 73.333C135.702 73.333 133.833 72.4378 132.516 70.6475C131.527 69.3154 131.033 67.7471 131.033 65.9424C131.033 65.0758 131.151 64.238 131.388 63.4287C131.624 62.6123 131.989 61.8604 132.483 61.1729C132.827 60.6859 133.217 60.2526 133.654 59.873C134.098 59.4863 134.575 59.1641 135.083 58.9062C135.599 58.6413 136.139 58.4408 136.705 58.3047C137.271 58.1686 137.851 58.1006 138.445 58.1006C139.498 58.1006 140.536 58.3584 141.561 58.874C141.876 59.0387 142.09 59.1175 142.205 59.1104C142.434 59.1104 142.624 59.0173 142.774 58.8311C142.932 58.6377 143.043 58.3942 143.107 58.1006H143.483ZM154.978 68.123H149.338L148.35 70.4219C148.106 70.9805 147.984 71.403 147.984 71.6895C147.984 71.804 148.002 71.9115 148.038 72.0117C148.081 72.1048 148.163 72.1943 148.285 72.2803C148.407 72.359 148.579 72.4271 148.801 72.4844C149.023 72.5345 149.313 72.5739 149.671 72.6025V73H145.084V72.6025C145.686 72.4951 146.079 72.3555 146.266 72.1836C146.452 72.0117 146.642 71.7539 146.835 71.4102C147.035 71.0592 147.25 70.6188 147.479 70.0889L152.604 58.1006H152.979L158.05 70.2178C158.257 70.7191 158.447 71.1237 158.619 71.4316C158.798 71.7324 158.981 71.9688 159.167 72.1406C159.353 72.3053 159.554 72.4199 159.769 72.4844C159.991 72.5488 160.252 72.5882 160.553 72.6025V73H154.806V72.6025C155.092 72.5882 155.332 72.556 155.525 72.5059C155.719 72.4557 155.869 72.3913 155.977 72.3125C156.091 72.2337 156.17 72.1442 156.213 72.0439C156.263 71.9437 156.288 71.8327 156.288 71.7109C156.295 71.5534 156.259 71.3529 156.181 71.1094C156.109 70.8587 156.002 70.5615 155.858 70.2178L154.978 68.123ZM154.677 67.3281L152.206 61.4414L149.671 67.3281H154.677ZM175.678 73H171.789L166.858 66.1895C166.672 66.1966 166.504 66.2038 166.354 66.2109C166.21 66.2109 166.081 66.2109 165.967 66.2109C165.874 66.2109 165.773 66.2109 165.666 66.2109C165.559 66.2038 165.448 66.1966 165.333 66.1895V70.4219C165.333 71.3385 165.433 71.9079 165.634 72.1299C165.906 72.445 166.314 72.6025 166.858 72.6025H167.428V73H161.187V72.6025H161.734C162.343 72.6025 162.784 72.402 163.056 72.001C163.206 71.779 163.281 71.2526 163.281 70.4219V61.0117C163.281 60.0951 163.181 59.5257 162.98 59.3037C162.701 58.9886 162.286 58.8311 161.734 58.8311H161.187V58.4336H166.493C168.026 58.4336 169.164 58.5482 169.909 58.7773C170.274 58.8848 170.615 59.0459 170.93 59.2607C171.252 59.4756 171.531 59.7298 171.768 60.0234C172.011 60.3171 172.201 60.6465 172.337 61.0117C172.48 61.377 172.552 61.7673 172.552 62.1826C172.552 62.6338 172.48 63.0563 172.337 63.4502C172.194 63.8369 171.972 64.1914 171.671 64.5137C171.377 64.8359 171.005 65.1152 170.554 65.3516C170.103 65.5879 169.573 65.7741 168.964 65.9102L171.972 70.0889C172.666 71.0557 173.257 71.693 173.744 72.001C174.245 72.3161 174.89 72.5166 175.678 72.6025V73ZM165.333 65.5127C165.469 65.5127 165.587 65.5163 165.688 65.5234C165.788 65.5234 165.87 65.5234 165.935 65.5234C166.629 65.5234 167.238 65.4447 167.761 65.2871C168.291 65.1224 168.731 64.8968 169.082 64.6104C169.433 64.3239 169.694 63.9873 169.866 63.6006C170.045 63.2067 170.135 62.7806 170.135 62.3223C170.135 61.8711 170.06 61.4593 169.909 61.0869C169.759 60.7074 169.544 60.3815 169.265 60.1094C168.993 59.8372 168.663 59.626 168.276 59.4756C167.897 59.3252 167.478 59.25 167.02 59.25C166.812 59.25 166.568 59.2679 166.289 59.3037C166.01 59.3324 165.691 59.3825 165.333 59.4541V65.5127ZM175.86 73V72.6025H176.408C177.017 72.6025 177.454 72.4056 177.719 72.0117C177.876 71.7826 177.955 71.2526 177.955 70.4219V61.0117C177.955 60.0951 177.855 59.5257 177.654 59.3037C177.375 58.9886 176.96 58.8311 176.408 58.8311H175.86V58.4336H181.79C183.967 58.4336 185.621 58.6807 186.753 59.1748C187.892 59.6689 188.805 60.4925 189.492 61.6455C190.187 62.7913 190.534 64.1234 190.534 65.6416C190.534 66.7158 190.359 67.7041 190.008 68.6064C189.664 69.5088 189.148 70.2858 188.461 70.9375C187.781 71.582 186.928 72.0869 185.904 72.4521C184.887 72.8174 183.709 73 182.37 73H175.86ZM180.018 71.9473C180.913 72.1478 181.675 72.248 182.306 72.248C183.129 72.248 183.892 72.0977 184.594 71.7969C185.303 71.4889 185.915 71.0557 186.431 70.4971C186.946 69.9313 187.351 69.2474 187.645 68.4453C187.938 67.6432 188.085 66.7445 188.085 65.749C188.085 64.7464 187.938 63.8441 187.645 63.042C187.358 62.2399 186.953 61.5596 186.431 61.001C185.915 60.4352 185.296 60.002 184.572 59.7012C183.856 59.4004 183.072 59.25 182.22 59.25C181.897 59.25 181.554 59.2786 181.188 59.3359C180.823 59.3861 180.433 59.4613 180.018 59.5615V71.9473Z" fill="white"/>
<path d="M82.8566 20.7818C82.834 21.2648 82.8251 21.7435 82.834 22.2223C82.8614 25.1483 83.421 28.0297 84.4416 30.7345C84.6224 31.2222 84.821 31.7009 85.0333 32.1707C86.984 36.5283 90.1723 40.3398 94.3044 42.9994H92.701C89.034 40.3529 86.171 36.7994 84.3197 32.785C84.1026 32.3152 83.8998 31.8365 83.7148 31.3536C82.5813 28.4632 81.9627 25.3659 81.9312 22.2228C81.9223 21.7441 81.9312 21.2611 81.9538 20.7824C82.0079 19.5768 82.1525 18.3666 82.3874 17.1653C82.7442 15.3365 83.2634 13.5934 83.9455 11.9448C84.162 11.4209 84.3969 10.9064 84.6455 10.4051C86.6771 6.29559 89.7661 2.86348 93.7894 0.280586C93.9339 0.190198 94.0737 0.0956059 94.214 0.000488281H94.9229V0.614811C94.7106 0.759327 94.4941 0.903843 94.2771 1.04363C90.3305 3.57239 87.314 6.95931 85.3586 11.0142C85.11 11.5244 84.8799 12.0436 84.6676 12.5765C84.0627 14.0847 83.5971 15.6744 83.2723 17.3361C83.0511 18.4833 82.9155 19.6346 82.8566 20.7813V20.7818Z" fill="#FFE7C6"/>
<path d="M99.9988 42.9994H97.592C97.2351 42.837 96.883 42.661 96.5399 42.4755C95.9618 42.1686 95.3974 41.8344 94.8556 41.4728C91.0578 38.9934 88.046 35.3538 86.2893 31.0955C86.0859 30.6079 85.9009 30.1155 85.7338 29.6141C85.1831 27.9661 84.8126 26.2361 84.6502 24.4525C84.5824 23.6984 84.5461 22.9533 84.5372 22.2217C84.5283 21.7341 84.5325 21.2553 84.5551 20.7813C84.6591 18.2662 85.1242 15.8998 85.955 13.6964C86.1537 13.1635 86.3707 12.6396 86.6146 12.1293C88.3303 8.47594 91.1029 5.28819 94.9234 2.59652C94.9775 2.55605 95.0317 2.51506 95.0858 2.47933C95.5824 2.13617 96.0569 1.79301 96.5084 1.44985C97.1542 0.966904 97.7591 0.483433 98.3235 0.000488281H99.6919C98.7434 0.858649 97.6871 1.71208 96.5084 2.57444C96.2146 2.79148 95.9124 3.00326 95.6008 3.2203C95.3706 3.37848 95.1447 3.54086 94.9234 3.70797C91.4282 6.2772 88.8947 9.29836 87.3324 12.7441C87.0933 13.2681 86.881 13.8009 86.6865 14.3427C85.9687 16.357 85.562 18.5016 85.4674 20.7824C85.44 21.2564 85.4358 21.7398 85.4448 22.2228C85.4495 22.9275 85.4852 23.6454 85.553 24.3721C85.6975 25.9529 86.0092 27.4879 86.4742 28.9604C86.6324 29.4754 86.8127 29.9809 87.016 30.4775C88.6099 34.5056 91.3604 37.9645 94.8556 40.385C95.3974 40.7686 95.9618 41.1212 96.5399 41.446C97.6372 42.0645 98.7933 42.5885 99.9988 42.9994Z" fill="#FFE7C6"/>
<path d="M117.84 42.3625C117.551 42.507 117.245 42.6289 116.928 42.7283C115.578 41.4323 114.282 40.755 112.86 40.5968C111.519 40.4523 110.146 40.3708 108.818 40.2988C107.933 40.2447 107.025 40.1948 106.127 40.1228C102.514 39.8337 99.2179 38.4611 96.5399 36.3386C95.944 35.8688 95.3838 35.3632 94.8556 34.8214C93.37 33.3043 92.1461 31.5296 91.2564 29.5652C91.0352 29.0823 90.8365 28.5899 90.6605 28.0838C89.9558 26.0921 89.59 23.9475 89.6221 21.7209C89.6583 19.2962 90.1187 17.0292 90.9858 14.9518C91.2028 14.4368 91.4419 13.936 91.7083 13.4483C92.5392 11.9038 93.6138 10.486 94.9234 9.20798C95.42 8.72503 95.944 8.26416 96.5084 7.82641C96.6933 7.67716 96.8831 7.53265 97.0775 7.39286C100.442 4.92716 103.164 2.50665 105.391 0.000488281H106.583C106.534 0.0635497 106.479 0.127137 106.425 0.190198C104.095 2.89501 101.21 5.48735 97.6151 8.11964C97.2315 8.39974 96.861 8.69297 96.5089 8.99567C95.9398 9.47441 95.4116 9.97995 94.9239 10.5086C94.0794 11.4209 93.3527 12.4052 92.7473 13.4483C92.463 13.936 92.2055 14.4373 91.9753 14.9518C91.0493 17.0202 90.5617 19.2962 90.5259 21.7346C90.4944 23.9607 90.8828 26.1058 91.619 28.0838C91.8087 28.5894 92.0163 29.0818 92.2512 29.5652C92.9422 30.9967 93.8183 32.32 94.8567 33.4987C95.3806 34.0946 95.9403 34.6501 96.5409 35.1693C99.178 37.45 102.515 38.9309 106.2 39.2247C107.085 39.2925 107.992 39.3466 108.869 39.3965C110.21 39.4732 111.596 39.55 112.956 39.6992C114.654 39.8889 116.176 40.7019 117.743 42.2642L117.842 42.3636L117.84 42.3625Z" fill="#FFE7C6"/>
<path d="M75.1122 34.9255C76.241 37.8021 77.745 40.5206 79.5785 42.9994H78.4675C76.6929 40.5069 75.2388 37.7974 74.1505 34.9297C73.9608 34.4509 73.7894 33.968 73.6265 33.4803C72.4341 29.8995 71.793 26.1016 71.7888 22.2228C71.7888 21.7441 71.7978 21.2653 71.8161 20.7824C71.8839 19.0571 72.0736 17.3235 72.3984 15.5803C72.8004 13.431 73.3559 11.3762 74.0737 9.42081C74.2498 8.93313 74.4395 8.45439 74.6339 7.98458C75.8305 5.099 77.3839 2.43466 79.2894 0.000488281H80.4004C78.4181 2.41626 76.8148 5.07167 75.5867 7.98406C75.388 8.45387 75.1983 8.93261 75.0223 9.42028C74.2771 11.412 73.7038 13.5203 73.2881 15.7469C72.9717 17.4312 72.7868 19.1154 72.719 20.7818C72.7011 21.2606 72.6916 21.7435 72.6916 22.2223C72.6964 26.1058 73.3512 29.9037 74.5793 33.4798C74.7464 33.9674 74.9224 34.4462 75.1122 34.9249V34.9255Z" fill="#FFE7C6"/>
<path d="M119.814 40.8049C119.62 41.0351 119.412 41.2521 119.186 41.455C118.852 41.1297 118.518 40.8091 118.184 40.4886C116.522 38.8989 114.458 37.9961 112.209 37.8783C111.636 37.8468 111.058 37.8242 110.48 37.8016C108.813 37.7386 107.093 37.675 105.417 37.3954C101.832 36.7947 98.8017 35.2413 96.5393 32.9385C95.9161 32.3063 95.3517 31.62 94.8551 30.8796C94.566 30.4597 94.2996 30.0214 94.0605 29.5653C93.7988 29.0913 93.5639 28.5941 93.3605 28.0839C92.8639 26.8962 92.5071 25.614 92.2858 24.2545C91.8481 21.5496 92.2906 18.1223 93.8892 14.9519C94.142 14.4416 94.431 13.9402 94.7473 13.4484C94.8015 13.358 94.8603 13.2676 94.9234 13.1819C95.3843 12.4867 95.9124 11.8135 96.5083 11.1771C97.3302 10.2921 98.283 9.47445 99.3666 8.75187C101.588 7.27518 103.905 5.63611 105.784 3.64442C106.858 2.50669 107.847 1.29171 108.746 0H109.834C108.823 1.51715 107.689 2.93971 106.443 4.26295C104.501 6.31297 102.135 7.99723 99.8685 9.50598C98.541 10.3909 97.4254 11.4251 96.5089 12.5539C95.8814 13.317 95.3485 14.1252 94.9055 14.9519C93.2255 18.0497 92.7472 21.4498 93.1761 24.1099C93.4062 25.5325 93.7993 26.8647 94.3411 28.0839C94.9145 29.3798 95.6507 30.5538 96.5404 31.5927C98.726 34.1577 101.824 35.8824 105.567 36.5057C107.184 36.7721 108.877 36.8399 110.516 36.8988C111.099 36.9214 111.681 36.944 112.259 36.9755C114.725 37.1064 116.992 38.0954 118.812 39.8385C119.146 40.1591 119.481 40.4844 119.815 40.8049H119.814Z" fill="#FFE7C6"/>
<path d="M70.0005 36.3523C70.6915 38.2441 71.5134 40.0508 72.4662 41.7714C72.3579 41.6899 72.2539 41.609 72.1546 41.5186C70.8854 40.4392 70.073 38.8632 70.0052 37.0885C70.0005 37.0071 70.0005 36.9262 70.0005 36.8494V36.3528V36.3523Z" fill="#FFE7C6"/>
<path d="M73.6355 0.542358C73.4232 0.86765 73.2198 1.19715 73.0212 1.53137C71.8288 3.52306 70.8219 5.55048 70 7.61417V6.15114C70 5.80798 70.0273 5.46903 70.0815 5.14426C70.6054 4.01546 71.1877 2.8956 71.8293 1.78467C71.8656 1.74841 71.8971 1.71267 71.9334 1.68062C72.3443 1.29226 72.8141 0.953834 73.3244 0.691604C73.4284 0.637476 73.532 0.587552 73.636 0.542358H73.6355Z" fill="#FFE7C6"/>
<path d="M105.95 21.3058C105.833 21.6174 105.837 21.9517 105.9 22.2675C105.954 22.5654 106.063 22.8455 106.176 23.0757C106.411 23.5813 106.772 23.9066 107.246 24.0511C107.797 24.2182 108.456 24.1099 109.048 23.7573C109.811 23.3012 110.57 22.8046 111.342 22.267C112.028 21.7882 112.719 21.2779 113.424 20.7272C113.893 20.3567 114.372 19.9731 114.855 19.5669C117.208 17.6025 119.33 15.5525 121.231 13.4074V14.7259C120.658 15.3533 120.066 15.9724 119.456 16.582C118.192 17.8464 116.851 19.0745 115.433 20.2579C115.243 20.4161 115.054 20.5743 114.864 20.7277C114.196 21.2743 113.537 21.7887 112.886 22.2675C111.748 23.112 110.633 23.8614 109.513 24.5298C108.7 25.0175 107.779 25.1573 106.984 24.9134C106.266 24.6964 105.706 24.1956 105.358 23.4641C105.159 23.0484 105.033 22.6511 104.983 22.2675C104.92 21.8066 104.961 21.3778 105.105 20.9894C105.137 20.8991 105.178 20.8134 105.222 20.7277C105.494 20.2038 105.972 19.7886 106.645 19.4949C106.744 19.4544 106.866 19.3099 106.983 19.1654C107.119 18.9983 107.277 18.8086 107.494 18.6641C111.513 16.0044 115.012 12.9202 117.974 9.42503C118.34 8.99621 118.697 8.55794 119.045 8.11546C119.79 7.17637 120.494 6.20522 121.159 5.20728C121.19 5.41958 121.213 5.63189 121.222 5.8484C121.226 5.94772 121.231 6.05177 121.231 6.15109V6.69763C120.896 7.17637 120.548 7.65038 120.187 8.11546C119.853 8.55794 119.51 8.99148 119.153 9.4203C116.037 13.2224 112.307 16.5641 107.99 19.4182C107.891 19.4859 107.787 19.6079 107.679 19.7434C107.503 19.9558 107.304 20.1949 107.006 20.3257C106.744 20.4387 106.527 20.5743 106.356 20.7277C106.166 20.8996 106.031 21.0888 105.95 21.3058H105.95Z" fill="#FFE7C6"/>
<path d="M77.7723 20.7818C77.745 21.2648 77.736 21.7435 77.7408 22.2223C77.7544 24.6428 78.075 27.0633 78.7072 29.4612C79.0729 30.8475 79.5154 32.1797 80.0441 33.4577C80.2475 33.959 80.464 34.4557 80.6941 34.9391C82.1078 37.9419 83.9817 40.6336 86.3119 42.9999H85.0564C82.8393 40.6157 81.051 37.9198 79.6915 34.9302C79.4702 34.4472 79.2626 33.959 79.0682 33.4582C78.5895 32.248 78.1785 30.9973 77.8354 29.6966C77.1806 27.2173 76.8511 24.7248 76.8374 22.2233C76.8327 21.7446 76.8421 21.2616 76.8689 20.7829C76.9457 18.9678 77.1942 17.1521 77.6141 15.346C78.0971 13.2549 78.7476 11.2864 79.5606 9.435C79.7776 8.93366 80.0078 8.44178 80.2517 7.96304C81.7415 5.00388 83.6922 2.35793 86.1127 0.000488281H87.427C84.862 2.3532 82.812 5.00861 81.2496 7.99772C81.0058 8.46753 80.7709 8.95047 80.5496 9.43815C79.6783 11.3437 78.9962 13.3805 78.4949 15.5477C78.0887 17.2909 77.849 19.0382 77.7723 20.7813V20.7818Z" fill="#FFE7C6"/>
<path d="M121.232 24.029V25.1578C120.477 25.7311 119.719 26.3276 118.987 26.9098C116.973 28.5037 114.891 30.1522 112.647 31.4707C111.527 32.1303 110.38 32.5002 109.237 32.6447C108.42 32.7488 107.611 32.7351 106.822 32.6269C104.392 32.2974 102.152 31.0687 100.558 29.5563C100.066 29.0865 99.632 28.5899 99.2757 28.0843C99.1627 27.9262 99.0545 27.7685 98.9594 27.6103C96.3539 23.3337 97.3114 18.0639 99.962 14.9529C100.468 14.3569 101.033 13.8419 101.651 13.4268C101.728 13.3769 101.804 13.3275 101.881 13.2775C107.495 9.78604 111.902 5.34284 115.063 0.000488281H115.176C115.479 0.00521789 115.777 0.0367486 116.066 0.0819426C114.35 3.06212 112.264 5.77166 109.802 8.2011C107.608 10.373 105.124 12.3195 102.356 14.0443C101.945 14.297 101.556 14.6045 101.195 14.9518C98.3597 17.6566 97.1626 22.9175 99.7324 27.14C99.9263 27.4564 100.152 27.7769 100.414 28.0838C100.834 28.5988 101.345 29.0954 101.914 29.5468C102.912 30.3372 104.108 31.0009 105.404 31.3982C106.312 31.6783 107.265 31.8318 108.231 31.8139C109.545 31.796 110.895 31.4571 112.191 30.694C114.382 29.4071 116.44 27.7769 118.427 26.2009C119.326 25.492 120.256 24.7558 121.186 24.0558C121.2 24.0468 121.218 24.0379 121.232 24.0285V24.029Z" fill="#FFE7C6"/>
<path d="M75.9477 42.1233C76.0649 42.3083 76.0381 42.5432 75.8889 42.6877C75.8663 42.7103 75.8437 42.7329 75.8169 42.7508C75.6046 42.8864 75.3245 42.8228 75.1894 42.6152C73.5771 40.1269 72.286 37.5666 71.3106 34.9385C71.1298 34.4598 70.9627 33.9721 70.8051 33.4892C70.4982 32.5317 70.227 31.5653 70.001 30.5947V23.8481C70.1366 27.1494 70.7236 30.3687 71.762 33.485C71.9202 33.9727 72.0915 34.4561 72.277 34.9343C73.2161 37.3953 74.44 39.7932 75.9483 42.1233H75.9477Z" fill="#FFE7C6"/>
<path d="M77.0182 0.000488281C75.2346 2.44359 73.7806 5.1032 72.6649 7.97985C72.4799 8.45387 72.3039 8.93261 72.1368 9.42028C71.7799 10.4771 71.4594 11.556 71.1882 12.6669C70.5108 15.4216 70.1135 18.1312 70.0005 20.7818V13.8004C70.0951 13.3532 70.1992 12.9018 70.3122 12.4504C70.5649 11.4162 70.8587 10.4046 71.1882 9.42028C71.3464 8.93261 71.5177 8.45387 71.6985 7.97985C72.7779 5.11687 74.182 2.45725 75.9026 0.00521789C75.9882 0.000488281 76.0697 0.000488281 76.1553 0.000488281H77.0177H77.0182Z" fill="#FFE7C6"/>
<path d="M113.013 0.000488281C112.412 0.962174 111.749 1.93332 111.026 2.92233C108.669 6.14214 105.58 8.94207 101.006 11.99C100.337 12.4372 99.7277 12.916 99.1859 13.4305C98.6756 13.9092 98.2242 14.4147 97.8264 14.9523C95.9566 17.4722 95.3065 20.6105 95.9072 24.3317C96.1237 25.7043 96.5394 26.9598 97.1442 28.0843C97.4154 28.5993 97.727 29.087 98.0791 29.5432C99.5647 31.4897 101.728 32.939 104.509 33.8377C105.141 34.041 105.828 34.1088 106.55 34.1808C106.894 34.2123 107.237 34.2439 107.576 34.2938C107.819 34.3301 107.991 34.5602 107.959 34.8041C107.941 34.9034 107.896 34.9938 107.828 35.0616C107.734 35.1562 107.594 35.2108 107.449 35.1882C107.124 35.143 106.794 35.1115 106.465 35.08C105.724 35.0074 104.956 34.9307 104.229 34.6963C100.996 33.6532 98.5484 31.9059 96.9587 29.5437C96.6424 29.0828 96.367 28.5951 96.119 28.0849C95.5908 26.9876 95.2203 25.7821 95.0128 24.4767C94.421 20.8008 95.0175 17.5809 96.747 14.9529C97.0901 14.42 97.4874 13.9145 97.9299 13.431C98.6614 12.6317 99.5196 11.9002 100.504 11.2407C104.983 8.25102 108.004 5.51941 110.294 2.38526C110.886 1.58123 111.432 0.786653 111.947 0.00101379H113.013L113.013 0.000488281Z" fill="#FFE7C6"/>
<path d="M103.15 0.000488281L103.146 0.00521789C101.434 1.79774 99.6683 3.64964 97.5867 4.98181C97.2162 5.21672 96.8552 5.46055 96.5073 5.71332C95.9519 6.10641 95.4237 6.51736 94.9224 6.94617C92.7005 8.82488 91.0163 11.0015 89.8785 13.4489C89.6484 13.9365 89.445 14.4379 89.26 14.9523C89.034 15.5893 88.8354 16.244 88.6772 16.912C88.6683 16.9524 88.6593 16.9934 88.6499 17.0339C87.7917 20.6962 87.7917 24.1188 88.6499 27.2803C88.7224 27.5515 88.7991 27.8179 88.889 28.0843C89.0472 28.5857 89.2274 29.0823 89.4355 29.5747H89.4403C90.2259 31.4534 91.3416 33.2281 92.782 34.8945C93.1341 35.3007 93.4867 35.7027 93.843 36.1047L94.3533 36.6875C94.5114 36.8683 94.5025 37.1389 94.3354 37.306C94.3265 37.3108 94.3175 37.3197 94.3128 37.3239C94.1231 37.491 93.8388 37.4684 93.6759 37.2834L93.1656 36.7054C92.8088 36.2991 92.452 35.8924 92.0999 35.4862C90.506 33.6437 89.2868 31.6704 88.4554 29.5794C87.6472 27.552 87.1958 25.4069 87.1096 23.1582V23.1267C87.1007 22.8287 87.0959 22.526 87.0959 22.2233C87.1096 20.4439 87.3445 18.6015 87.7959 16.7007C88.0713 15.5535 88.4418 14.4563 88.9021 13.4042C90.1891 10.4871 92.2034 7.93571 94.9219 5.77271C95.4274 5.37542 95.9561 4.98707 96.5068 4.61238C96.7007 4.48152 96.8999 4.35067 97.0985 4.22402C98.8553 3.09943 100.409 1.55495 101.903 0.00206482H103.15L103.15 0.000488281Z" fill="#FFE7C6"/>
<path d="M121.232 17.1963V18.488C121.173 18.551 121.114 18.6099 121.056 18.6687C120.351 19.3734 119.629 20.0598 118.888 20.7277C118.305 21.2558 117.714 21.7708 117.108 22.2674C115.149 23.9112 113.076 25.4195 110.895 26.8058C108.876 28.0927 106.207 27.7811 104.306 26.223C103.85 25.8525 103.435 25.4058 103.087 24.8955C102.875 24.5839 102.726 24.2134 102.631 23.8025C102.455 23.0573 102.464 22.1813 102.631 21.3142C102.857 20.1176 103.39 18.9389 104.148 18.1353C104.265 18.0087 104.392 17.8915 104.523 17.7833C106.975 15.7784 109.413 13.7641 111.856 11.7457L114.674 9.42447L114.873 9.26208C115.063 9.1039 115.347 9.13123 115.505 9.32094C115.532 9.35247 115.55 9.38873 115.568 9.42499C115.65 9.60577 115.609 9.82228 115.446 9.95786L112.43 12.4462C109.987 14.4599 107.544 16.4789 105.092 18.4838C104.721 18.7865 104.4 19.2063 104.143 19.694C103.335 21.2022 103.114 23.3248 103.836 24.3905C103.981 24.6028 104.134 24.7967 104.301 24.9822C105.909 26.7569 108.51 27.2535 110.411 26.048C112.248 24.8782 114.014 23.6138 115.694 22.2685C116.313 21.7672 116.922 21.2569 117.523 20.7287C118.815 19.6089 120.052 18.4302 121.231 17.1973L121.232 17.1963Z" fill="#FFE7C6"/>
<path d="M83.8094 0.000488281C81.5292 2.43466 79.7408 5.08061 78.4176 7.97513C78.2778 8.27782 78.1422 8.57999 78.0156 8.88741C77.9389 9.06819 77.8663 9.24844 77.7991 9.42501C76.0875 13.638 75.2162 17.3051 75.1347 20.7818C75.1258 21.2648 75.13 21.7483 75.1484 22.2223C75.1936 23.3873 75.3334 24.5345 75.5546 25.6812C75.7937 26.9093 75.9971 28.1648 76.1915 29.3797C76.2819 29.9441 76.3723 30.5133 76.4627 31.0777C76.49 31.2269 76.4401 31.3714 76.3361 31.4707C76.273 31.5338 76.1915 31.579 76.0922 31.5974C75.8484 31.6379 75.6135 31.4707 75.573 31.2269C75.4784 30.6578 75.388 30.0892 75.2976 29.5243C75.1037 28.314 74.9046 27.0675 74.6702 25.853C74.4353 24.6564 74.2955 23.4504 74.2503 22.2223C74.2366 21.7435 74.2324 21.2648 74.2456 20.7818C74.3312 17.273 75.1805 13.5524 76.8195 9.42501C76.9367 9.13125 77.0544 8.83802 77.1806 8.54005C77.2573 8.35034 77.3387 8.16536 77.4197 7.97985C78.6977 5.08954 80.4093 2.44359 82.586 0.000488281H83.8099H83.8094Z" fill="#FFE7C6"/>
<path d="M90.0141 42.9994H88.6682C85.8956 40.3981 83.7505 37.5761 82.247 34.546C82.021 34.0852 81.8045 33.6159 81.6059 33.1461C80.3278 30.1296 79.6594 26.9146 79.6142 23.5276C79.6142 23.2791 79.8128 23.0715 80.0614 23.0715C80.31 23.0668 80.5176 23.2654 80.5176 23.514C80.558 26.6797 81.1634 29.6914 82.3285 32.5318C82.5271 33.0105 82.7394 33.4845 82.9696 33.9543C84.4463 37.007 86.6003 39.8427 89.4045 42.4529C89.6078 42.6379 89.8107 42.8234 90.0141 42.9994Z" fill="#FFE7C6"/>
<path d="M121.114 22.2675C118.753 24.3312 116.179 26.2955 113.388 28.1606C110.602 30.0256 108.289 30.6531 106.081 29.9894C104.921 29.6415 103.791 28.9326 102.631 27.8579C102.202 27.4648 101.764 27.0134 101.322 26.5121C101.159 26.3271 101.182 26.047 101.362 25.8751C101.552 25.708 101.836 25.7259 101.999 25.9156C102.211 26.1594 102.424 26.3896 102.631 26.6019C103.209 27.2026 103.769 27.6992 104.324 28.0965C106.948 29.9978 109.436 29.7177 112.886 27.4102C115.333 25.7711 117.614 24.0595 119.727 22.267H121.113L121.114 22.2675Z" fill="#FFE7C6"/>
<path d="M118.599 1.11151C117.118 3.63607 115.37 5.97512 113.347 8.12446C113.22 8.26005 113.089 8.39563 112.958 8.53069C112.665 8.83338 112.363 9.13555 112.06 9.42931C109.585 11.8451 106.835 13.9813 104.153 16.0492C104.08 16.1033 104.008 16.1622 103.936 16.2163C103.444 16.5999 103.006 16.993 102.632 17.3992C100.803 19.3636 100.333 21.6259 101.191 24.2813C101.245 24.4484 101.2 24.6197 101.083 24.7375C101.033 24.7874 100.975 24.8278 100.902 24.8504C100.663 24.9272 100.41 24.7963 100.333 24.5567C99.281 21.3006 100.053 18.4697 102.632 16.1348C102.867 15.9183 103.119 15.7102 103.386 15.5026C103.643 15.304 103.905 15.1054 104.162 14.902C106.398 13.1725 108.664 11.3889 110.756 9.42879C111.216 8.99997 111.668 8.56169 112.106 8.11448C112.173 8.04249 112.245 7.97469 112.313 7.90217C114.449 5.69397 116.287 3.26926 117.818 0.645386C118.025 0.749437 118.229 0.861896 118.423 0.988545C118.482 1.02901 118.54 1.07 118.599 1.11046V1.11151Z" fill="#FFE7C6"/>
<path d="M82.834 42.9995H81.66C79.7272 40.5879 78.1286 37.892 76.8731 34.9208C76.7423 34.6181 76.6204 34.3159 76.4985 34.0085C76.4217 33.8099 76.4937 33.5886 76.6608 33.4709C76.6882 33.4483 76.7197 33.4347 76.7512 33.421C76.8957 33.3669 77.0492 33.3847 77.1711 33.4662C77.2431 33.5161 77.302 33.5881 77.3382 33.6785C77.5053 34.0984 77.6766 34.5141 77.8574 34.925C79.1581 37.9099 80.8197 40.6011 82.8335 42.999L82.834 42.9995Z" fill="#FFE7C6"/>
<path d="M91.4414 0.000488281C87.7969 2.83615 85.1599 5.90251 83.4126 9.35249C83.1551 9.8491 82.9202 10.3552 82.7079 10.8696C82.1661 12.1477 81.7367 13.4841 81.4162 14.8751C81.1723 15.9319 80.9737 17.0244 80.784 18.0812C80.6936 18.5778 80.6079 19.0702 80.5128 19.5669C80.495 19.6572 80.4498 19.7387 80.3862 19.8018C80.2869 19.9058 80.1376 19.9552 79.9842 19.9237C79.7356 19.8785 79.5779 19.6436 79.6231 19.3955C79.7177 18.9079 79.8081 18.4155 79.8943 17.9236C80.0887 16.8531 80.2874 15.7516 80.5354 14.6722C80.8875 13.1278 81.371 11.66 81.9806 10.2511C82.2018 9.74084 82.4409 9.23951 82.7032 8.7429C84.3648 5.54148 86.7675 2.66904 90.0009 0.000488281H91.4414Z" fill="#FFE7C6"/>
<path d="M121.232 9.42029V10.7614C120.021 12.2559 118.734 13.6832 117.366 15.0511C115.356 17.0654 113.166 18.9483 110.778 20.7272C110.078 21.2511 109.355 21.7656 108.619 22.2669C108.484 22.3615 108.348 22.4567 108.213 22.547C108.006 22.6868 107.725 22.6327 107.586 22.4299C107.549 22.3799 107.527 22.3258 107.518 22.2675C107.482 22.0914 107.549 21.9064 107.708 21.8024C108.231 21.4503 108.742 21.0935 109.247 20.7277C113.912 17.386 117.827 13.6696 121.146 9.42029H121.232H121.232Z" fill="#FFE7C6"/>
<path d="M114.422 42.9994H111.455C111.234 42.9542 111.012 42.9138 110.795 42.8728C110.041 42.7372 109.256 42.7687 108.429 42.805C107.747 42.8323 107.038 42.8639 106.343 42.7961C103.146 42.4708 99.488 41.7934 96.5394 39.2242C96.4989 39.1926 96.4537 39.1516 96.4127 39.1159C96.2278 38.9488 96.2094 38.6645 96.3765 38.479C96.4217 38.4249 96.4758 38.3886 96.5389 38.3618C96.6923 38.2987 96.882 38.3213 97.0129 38.4433C99.7902 40.9268 103.335 41.5816 106.433 41.898C107.065 41.961 107.706 41.9342 108.388 41.9027C109.233 41.8664 110.104 41.8302 110.953 41.9842C112.113 42.1917 113.387 42.4582 114.421 43L114.422 42.9994Z" fill="#FFE7C6"/>
<path d="M120.46 3.17045C119.814 4.20465 119.127 5.2068 118.45 6.19161C118.016 6.8238 117.574 7.46966 117.145 8.11972C117.06 8.25057 116.973 8.37722 116.888 8.50807C116.87 8.5354 116.851 8.5622 116.829 8.58479C116.68 8.72931 116.445 8.76084 116.264 8.64365C116.084 8.53067 116.016 8.30942 116.079 8.11972C116.093 8.08346 116.107 8.04719 116.129 8.01566C116.64 7.23002 117.181 6.44438 117.705 5.68082C118.451 4.59721 119.214 3.49048 119.905 2.34802C120.072 2.5556 120.225 2.77264 120.366 2.99808C120.397 3.05694 120.433 3.11107 120.46 3.16992L120.46 3.17045Z" fill="#FFE7C6"/>
<path d="M120.861 29.8769C120.098 31.209 119.669 32.3562 119.872 33.4351C119.971 33.9769 120.233 34.4961 120.685 35.02C120.843 35.2008 121.023 35.3811 121.232 35.5618V36.4515C120.608 35.9817 120.143 35.503 119.809 35.02C119.448 34.5008 119.24 33.968 119.163 33.4304C118.987 32.2064 119.466 30.9284 120.265 29.5379C120.626 28.9057 120.938 28.2236 121.232 27.5557V29.1858C121.114 29.4207 120.992 29.6509 120.861 29.8769Z" fill="#FFE7C6"/>
<path d="M121.056 38.3345C120.979 38.6597 120.875 38.9756 120.749 39.2783C117.403 36.194 113.505 34.8529 108.895 35.1914C108.646 35.2092 108.43 35.0243 108.412 34.7715C108.394 34.5229 108.579 34.3064 108.827 34.2885H108.855C111.194 34.1214 113.357 34.3605 115.362 35.0153C117.417 35.6838 119.309 36.7852 121.057 38.3345H121.056Z" fill="#FFE7C6"/>
<path d="M117.612 34.8387C117.598 34.8529 117.583 34.8661 117.567 34.8787C117.369 35.0306 117.085 34.9927 116.933 34.7946C115.853 33.3831 115.931 31.9095 117.165 30.4155C117.536 29.9662 117.9 29.4927 118.252 29.035C118.413 28.8258 118.573 28.6167 118.735 28.4086C118.887 28.2068 119.173 28.1768 119.369 28.3298C119.566 28.4827 119.601 28.767 119.448 28.9635C119.287 29.1701 119.128 29.3771 118.968 29.5847C118.612 30.0487 118.243 30.5285 117.861 30.9899C116.891 32.1644 116.827 33.1687 117.651 34.2454C117.79 34.4273 117.769 34.6811 117.612 34.8387Z" fill="#FFE7C6"/>
</svg>
